<svg viewBox="0 0 448 512" width="20" xmlns="http://www.w3.org/2000/svg">
  <path fill="#333" d="M135.2 17.7L140.8 0h166.5l5.6 17.7L336 32H112l23.2-14.3zM48 
80h352l-21.2 403.8c-1.6 30.3-26.6 54.2-56.9 54.2H126.1c-30.3 
0-55.3-23.9-56.9-54.2L48 80zm96 64c-8.8 0-16 7.2-16 16v256c0 
8.8 7.2 16 16 16s16-7.2 16-16V160c0-8.8-7.2-16-16-16zm112 
16c0-8.8-7.2-16-16-16s-16 7.2-16 16v256c0 8.8 7.2 16 
16 16s16-7.2 16-16V160zm80-16c-8.8 
0-16 7.2-16 16v256c0 8.8 7.2 16 
16 16s16-7.2 16-16V160c0-8.8-7.2-16-16-16z"></path>
</svg>
